<?xml version="1.0" encoding="UTF-8"?>
<svg xmlns="http://www.w3.org/2000/svg" id="Ebene_1" viewBox="0 0 230 60.32">
  <path d="m38.57,59.26c-.66.66-1.46.99-2.39.99s-1.73-.33-2.39-.99c-.65-.66-.98-1.46-.98-2.4s.33-1.72.99-2.38c.66-.66,1.45-.98,2.38-.98s1.73.33,2.39.98c.66.65.99,1.45.99,2.38s-.33,1.73-.99,2.4Zm-4.45-4.44c-.56.57-.85,1.25-.85,2.05s.28,1.5.84,2.06c.57.57,1.25.85,2.06.85s1.49-.28,2.06-.85c.57-.57.85-1.26.85-2.06s-.28-1.48-.85-2.05c-.57-.57-1.25-.85-2.06-.85s-1.49.28-2.06.85Zm2,.19c.46,0,.8.05,1.01.14.39.16.58.47.58.94,0,.33-.12.58-.36.73-.13.08-.31.14-.54.18.29.05.5.17.64.36.13.19.2.39.2.57v.27c0,.08,0,.18,0,.27,0,.1.02.16.03.19l.02.05h-.61s0-.02,0-.04c0-.01,0-.03,0-.04v-.12s-.01-.29-.01-.29c0-.42-.12-.7-.35-.84-.14-.08-.38-.12-.73-.12h-.52v1.45h-.65v-3.7h1.3Zm.71.6c-.17-.09-.43-.14-.8-.14h-.56v1.32h.59c.28,0,.49-.03.63-.08.26-.1.38-.29.38-.57,0-.26-.08-.44-.25-.54Z" fill="#1d1d1b"></path>
  <path d="m40.04,6.65c-2.39-4.75-6.48-6.65-9.49-6.65-.03,0-.05,0-.08,0-.04,0-.07,0-.11,0-3.6,0-7.79,4.64-9.78,4.73-1.79-.08-5.37-3.86-8.7-4.6-.11-.03-.57-.1-.22.79,4.23,10.09,7.67,19.7,11.17,27.76.65,1.44,1.61.8,1.78.68,4.23-2.87,10.54-7.72,13.07-10.12,3.73-3.55,4.4-8.51,2.34-12.59Z" fill="#008bcb"></path>
  <path d="m13.01,13.94c-.36-.81-4.73-12.11-4.92-12.56-.25-.6-.86-.66-1.72-.25-1.95,1.03-3.86,2.8-5.22,5.51C-.06,9.03-.33,11.72.4,14.25c.28,1.07,1.22.96,1.58.96s9.68,0,10.46,0,.85-.6.56-1.27Z" fill="#008bcb"></path>
  <path d="m13.2,18.34c-3.46,0-5.76,0-9.31,0-.67,0-.82.49-.41.9,2.81,2.67,10.28,8.35,14.39,11,1.81,1.05,1.64.33,1.25-.61-.55-1.4-2.33-6.03-3.72-9.45-.68-1.74-1.13-1.84-2.2-1.84Z" fill="#008bcb"></path>
  <path d="m25.32,39.2c0,2.61-2.12,4.73-4.73,4.73s-4.73-2.12-4.73-4.73,2.12-4.73,4.73-4.73,4.73,2.12,4.73,4.73Z" fill="#008bcb"></path>
  <path d="m36.71,25.98c-1.12-.2-1.58,1.12-1.81,2.07-.83,3.41-2.5,15.03-10.93,19.43-.43.23-.95.43-1.53.57-.15.04-.32.06-.48.1-.16.03-.31.07-.47.09-.13.02-.26.02-.39.03-.17.01-.34.03-.51.03-.17,0-.34-.02-.51-.03-.13-.01-.26-.01-.39-.03-.16-.02-.31-.06-.47-.09-.16-.03-.33-.06-.48-.1-.58-.15-1.09-.35-1.53-.57-8.43-4.4-10.1-16.02-10.93-19.43-.23-.95-.69-2.26-1.81-2.07-1.17.21-1.11,2.22-.98,3.41.24,2.2.59,4.19,1.05,6.02,0,.07,0,.13.02.2.36,1.67,4.83,15.2,10.67,22.73.88,1.14,3.14,1.72,5.26,1.77h0s.03,0,.05,0c0,0,0,0,0,0,.02,0,.03,0,.05,0,.02,0,.03,0,.05,0,0,0,0,0,0,0h.05c2.12-.05,4.38-.64,5.26-1.77,5.85-7.54,10.32-21.06,10.67-22.73.01-.06.02-.13.02-.2.45-1.82.81-3.82,1.05-6.02.13-1.19.19-3.2-.98-3.41Z" fill="#008bcb"></path>
  <path d="m58.57,49.99c-.01-.89-.04-1.51-.09-1.84.13.02.25.04.37.06.12.02.23.03.35.03.15,0,.33-.03.52-.09-.04.41-.07.89-.11,1.45-.04.56-.07,1.16-.09,1.81-.02.64-.05,1.31-.07,1.98-.02.68-.04,1.34-.05,1.98-.01.77-.13,1.47-.36,2.09-.23.62-.55,1.14-.97,1.57-.42.43-.93.75-1.54.98-.61.22-1.31.33-2.1.33-1.74,0-3-.39-3.79-1.18-.79-.79-1.18-2.04-1.18-3.74,0-.54.02-1.03.04-1.45.03-.42.04-.86.04-1.3,0-.97-.01-1.84-.04-2.59-.02-.76-.05-1.39-.07-1.91.14.02.29.04.45.06.16.02.31.03.45.03.13,0,.25,0,.38-.03.12-.02.25-.04.37-.06-.02.25-.05.59-.07,1-.02.41-.05.88-.07,1.4-.02.52-.04,1.08-.05,1.69-.01.6-.02,1.23-.02,1.88,0,.4,0,.8.02,1.23.01.42.05.84.12,1.24.07.4.18.78.34,1.15.16.36.38.68.67.96.29.27.66.49,1.1.64.44.16.99.24,1.64.24s1.18-.09,1.61-.28c.44-.19.79-.43,1.07-.73.28-.3.5-.65.65-1.04.16-.4.27-.81.34-1.24.07-.43.11-.86.12-1.29.01-.43.02-.82.02-1.18,0-1.65,0-2.92-.02-3.81Z" fill="#1d1d1b"></path>
  <path d="m67.83,53.22c-.34-.45-.8-.67-1.39-.67-.81,0-1.41.25-1.79.75-.38.5-.57,1.2-.57,2.11v1.48c0,.52,0,1.07.03,1.65.02.57.06,1.09.11,1.56-.27-.03-.53-.04-.78-.04s-.52.02-.78.04c.06-.47.1-.98.11-1.56.02-.58.03-1.13.03-1.65v-1.81c0-.52,0-1.07-.03-1.65-.02-.57-.05-1.11-.11-1.61.32.06.58.09.78.09.09,0,.19,0,.3-.03.11-.02.24-.04.39-.06-.03.47-.04.93-.04,1.4h.04c.32-.5.71-.89,1.17-1.16.45-.27.99-.41,1.62-.41.32,0,.65.05.98.14.33.09.63.25.9.48.27.23.49.54.65.92.17.39.25.89.25,1.49,0,.5-.01,1.01-.03,1.54-.02.53-.03,1.09-.03,1.68v1.13c0,.19,0,.37.01.55,0,.18.02.35.03.51-.23-.03-.48-.04-.74-.04s-.49.02-.72.04c.03-.6.05-1.23.08-1.87.03-.64.05-1.3.05-1.97v-1.06c0-.87-.17-1.53-.51-1.98Z" fill="#1d1d1b"></path>
  <path d="m72.51,58.87c.12.14.27.27.43.39.17.12.36.22.57.3.21.08.44.12.69.12.22,0,.43-.04.64-.1.2-.07.38-.17.54-.3.16-.13.28-.29.37-.49.09-.2.14-.42.14-.68,0-.36-.1-.64-.3-.83-.2-.19-.46-.35-.76-.47-.3-.12-.63-.23-.99-.32-.36-.09-.69-.23-.99-.4-.3-.17-.55-.39-.76-.67-.2-.28-.3-.66-.3-1.15,0-.38.06-.73.19-1.05.13-.32.31-.59.56-.83.24-.23.54-.42.9-.55.36-.13.77-.2,1.23-.2.43,0,.79.06,1.09.17.3.11.58.22.85.31-.09.17-.18.39-.26.64-.08.25-.13.45-.16.59h-.21c-.09-.28-.27-.53-.54-.75-.27-.22-.6-.33-.99-.33-.18,0-.35.03-.52.09-.17.06-.33.14-.47.26-.14.12-.25.27-.35.45-.09.19-.14.41-.14.66,0,.37.1.66.3.86.2.2.45.36.76.48.3.12.63.22.99.31.36.09.69.21.99.37.3.16.55.38.76.65.2.28.3.66.3,1.15,0,.34-.07.67-.22,1-.15.32-.36.62-.63.88-.27.26-.6.47-.98.61-.38.15-.82.22-1.3.22-.53,0-.98-.05-1.34-.15-.36-.11-.66-.23-.9-.37.07-.15.14-.35.22-.62.07-.26.11-.48.11-.65h.21c.06.12.15.24.27.38Z" fill="#1d1d1b"></path>
  <path d="m79.4,52.88c.68-.81,1.67-1.22,2.97-1.22.62,0,1.15.09,1.59.29.45.19.82.45,1.12.77.3.32.53.69.67,1.13.14.43.22.89.22,1.38,0,.12,0,.23-.01.34,0,.11-.02.22-.03.34-.63,0-1.25-.02-1.86-.03-.62,0-1.24-.01-1.86-.01-.38,0-.76,0-1.14.01-.38,0-.76.02-1.14.03-.02.06-.02.15-.02.26v.23c0,.45.07.88.2,1.27.13.39.33.73.59,1.02.26.29.57.51.94.68.37.17.8.25,1.29.25.23,0,.47-.03.72-.1.24-.06.48-.15.72-.26.23-.11.45-.24.65-.39.2-.15.38-.31.53-.49l.09.05-.1.85c-.35.28-.78.52-1.3.72-.52.2-1.06.3-1.61.3-.63,0-1.2-.1-1.72-.29-.52-.19-.96-.47-1.34-.84-.38-.37-.67-.8-.87-1.3-.2-.5-.31-1.04-.31-1.62,0-1.43.34-2.55,1.02-3.36Zm1.91-.36c-.3.2-.54.44-.74.74-.19.3-.34.62-.44.98-.1.35-.16.69-.18,1,.36.01.74.02,1.13.03.39.01.77.02,1.15.02s.78,0,1.17-.02c.4,0,.78-.02,1.16-.03,0-.31-.03-.64-.08-.99-.05-.35-.16-.67-.32-.97-.16-.3-.38-.55-.66-.75-.28-.2-.65-.3-1.1-.3-.43,0-.8.1-1.09.3Z" fill="#1d1d1b"></path>
  <path d="m91.44,53.08c-.17-.06-.34-.09-.51-.09-.28,0-.53.06-.75.19-.22.13-.41.3-.56.51-.15.22-.27.47-.35.77-.08.3-.12.61-.12.95v1.91c0,.78,0,1.37,0,1.78,0,.41.02.75.06,1-.23-.03-.46-.04-.69-.04-.25,0-.5.02-.73.04.03-.39.05-.93.06-1.61,0-.68,0-1.51,0-2.5v-.56c0-.45,0-.98,0-1.57,0-.59-.02-1.27-.06-2.04.13.02.25.04.36.06.12.02.24.03.36.03.1,0,.21,0,.33-.03.11-.02.24-.04.36-.06-.05.42-.07.75-.08.99,0,.24,0,.48,0,.7l.04.02c.68-1.25,1.45-1.88,2.3-1.88.1,0,.19,0,.27.02.08.01.17.04.29.09-.06.14-.09.35-.1.64-.01.29-.02.54-.02.78l-.12.09c-.06-.07-.17-.13-.34-.19Z" fill="#1d1d1b"></path>
  <path d="m93.89,52.88c.68-.81,1.67-1.22,2.97-1.22.62,0,1.15.09,1.59.29.45.19.82.45,1.12.77.3.32.53.69.67,1.13.14.43.22.89.22,1.38,0,.12,0,.23-.01.34,0,.11-.02.22-.03.34-.63,0-1.25-.02-1.86-.03-.62,0-1.24-.01-1.86-.01-.38,0-.76,0-1.14.01-.38,0-.76.02-1.14.03-.01.06-.02.15-.02.26v.23c0,.45.07.88.2,1.27.13.39.33.73.58,1.02.26.29.57.51.94.68.37.17.8.25,1.29.25.23,0,.47-.03.72-.1.24-.06.48-.15.72-.26.23-.11.45-.24.65-.39.2-.15.38-.31.53-.49l.09.05-.1.85c-.35.28-.78.52-1.3.72-.52.2-1.06.3-1.61.3-.63,0-1.2-.1-1.72-.29-.52-.19-.97-.47-1.34-.84-.38-.37-.67-.8-.87-1.3-.2-.5-.31-1.04-.31-1.62,0-1.43.34-2.55,1.02-3.36Zm1.91-.36c-.3.2-.54.44-.74.74-.19.3-.34.62-.44.98-.1.35-.16.69-.18,1,.36.01.74.02,1.13.03.39.01.77.02,1.15.02s.78,0,1.17-.02c.4,0,.78-.02,1.16-.03,0-.31-.03-.64-.08-.99-.05-.35-.16-.67-.32-.97-.16-.3-.38-.55-.66-.75-.28-.2-.65-.3-1.1-.3-.43,0-.8.1-1.09.3Z" fill="#1d1d1b"></path>
  <path d="m109.35,58.73c-.19-.63-.41-1.33-.65-2.13-.24-.79-.5-1.62-.77-2.48-.27-.87-.52-1.69-.77-2.47-.25-.79-.47-1.49-.67-2.12-.2-.63-.36-1.09-.48-1.39.15.02.3.04.44.06.14.02.28.03.44.03s.3,0,.44-.03c.14-.02.28-.04.43-.06.22.88.44,1.71.64,2.48.21.77.43,1.56.67,2.35.24.79.49,1.63.77,2.5.27.88.58,1.87.93,2.97h.04c.1-.31.25-.75.43-1.3.19-.55.39-1.16.61-1.83.22-.67.45-1.36.7-2.08.24-.72.47-1.41.68-2.06.21-.65.4-1.25.56-1.79.16-.54.28-.95.35-1.24.23.06.42.09.57.09s.34-.03.57-.09c.08.31.21.74.37,1.29.17.55.36,1.15.57,1.82.21.67.43,1.36.67,2.08.24.72.47,1.41.69,2.07.22.66.42,1.26.6,1.79.18.53.32.95.43,1.25h.03c.08-.25.21-.65.37-1.19.17-.54.36-1.15.57-1.83.21-.68.44-1.39.66-2.14.23-.75.44-1.46.64-2.14.2-.68.38-1.29.54-1.82.16-.54.26-.93.32-1.18.1.02.21.04.31.06.1.02.2.03.3.03s.21,0,.3-.03c.1-.02.2-.04.31-.06-.12.27-.29.71-.5,1.32-.22.61-.47,1.32-.74,2.11-.27.79-.56,1.62-.85,2.51-.3.88-.58,1.72-.85,2.52-.27.79-.52,1.51-.73,2.14-.22.63-.37,1.09-.48,1.37-.19-.03-.38-.04-.59-.04s-.4.02-.59.04c-.52-1.61-1.04-3.24-1.55-4.87-.51-1.63-1.06-3.32-1.65-5.06h-.03c-.09.27-.22.62-.37,1.07-.16.45-.33.95-.52,1.5-.19.56-.4,1.16-.62,1.8-.22.64-.44,1.28-.66,1.93-.22.65-.44,1.29-.64,1.92-.21.63-.4,1.2-.57,1.71-.19-.03-.39-.04-.61-.04s-.42.02-.61.04c-.09-.29-.24-.75-.43-1.38Z" fill="#1d1d1b"></path>
  <path d="m124.17,52.88c.68-.81,1.67-1.22,2.97-1.22.61,0,1.15.09,1.59.29.45.19.82.45,1.12.77.3.32.53.69.67,1.13.15.43.22.89.22,1.38,0,.12,0,.23-.01.34,0,.11-.02.22-.03.34-.63,0-1.25-.02-1.86-.03-.61,0-1.23-.01-1.86-.01-.38,0-.76,0-1.14.01-.38,0-.76.02-1.14.03-.02.06-.02.15-.02.26v.23c0,.45.07.88.2,1.27.13.39.33.73.58,1.02.26.29.57.51.94.68.37.17.8.25,1.29.25.23,0,.47-.03.72-.1.24-.06.48-.15.71-.26.23-.11.45-.24.66-.39.2-.15.38-.31.53-.49l.09.05-.1.85c-.35.28-.78.52-1.3.72-.52.2-1.06.3-1.61.3-.63,0-1.2-.1-1.72-.29-.52-.19-.96-.47-1.34-.84-.38-.37-.67-.8-.87-1.3-.2-.5-.3-1.04-.3-1.62,0-1.43.34-2.55,1.02-3.36Zm1.91-.36c-.3.2-.54.44-.73.74-.19.3-.34.62-.44.98-.1.35-.16.69-.18,1,.36.01.74.02,1.13.03.39.01.77.02,1.15.02s.78,0,1.17-.02c.4,0,.78-.02,1.16-.03,0-.31-.03-.64-.08-.99-.05-.35-.16-.67-.32-.97-.16-.3-.38-.55-.66-.75-.28-.2-.65-.3-1.1-.3-.43,0-.8.1-1.09.3Z" fill="#1d1d1b"></path>
  <path d="m136.21,53.08c-.17-.06-.34-.09-.51-.09-.28,0-.53.06-.75.19-.22.13-.41.3-.56.51-.15.22-.27.47-.35.77-.08.3-.12.61-.12.95v1.91c0,.78,0,1.37,0,1.78,0,.41.03.75.06,1-.23-.03-.46-.04-.69-.04-.25,0-.49.02-.73.04.03-.39.05-.93.06-1.61,0-.68,0-1.51,0-2.5v-.56c0-.45,0-.98,0-1.57,0-.59-.02-1.27-.06-2.04.13.02.25.04.36.06.12.02.24.03.36.03.1,0,.21,0,.33-.03.12-.02.24-.04.36-.06-.05.42-.07.75-.08.99,0,.24,0,.48,0,.7l.04.02c.68-1.25,1.45-1.88,2.3-1.88.1,0,.19,0,.27.02.08.01.17.04.29.09-.06.14-.09.35-.1.64-.01.29-.02.54-.02.78l-.12.09c-.06-.07-.17-.13-.34-.19Z" fill="#1d1d1b"></path>
  <path d="m140.63,49.5c-.04.44-.06.87-.08,1.3-.02.42-.04.85-.06,1.28.13,0,.37,0,.71,0,.35,0,.72-.02,1.13-.04-.01.04-.02.1-.02.19v.37c0,.09,0,.14.02.18-.15-.01-.31-.02-.47-.03-.16,0-.34,0-.52,0h-.85s-.03.23-.04.55c-.02.33-.04.71-.05,1.16-.01.45-.02.92-.03,1.4,0,.49,0,.92,0,1.31,0,.32,0,.64.03.96.02.31.07.59.16.85.09.25.23.45.42.6.19.15.45.23.8.23.09,0,.22-.01.38-.04.16-.02.29-.06.41-.09v.42c-.2.04-.42.08-.65.13-.24.05-.47.08-.69.08-.73,0-1.27-.18-1.62-.54-.35-.36-.52-.89-.52-1.58,0-.31,0-.65.02-1.02.01-.37.03-.77.05-1.2.02-.43.03-.92.05-1.44.01-.53.02-1.12.02-1.76h-.57c-.09,0-.19,0-.3,0-.1,0-.21.02-.33.03.01-.07.02-.14.03-.2,0-.06,0-.13,0-.2,0-.06,0-.12,0-.18,0-.06-.01-.12-.03-.18.52.04.91.07,1.15.07-.01-.24-.02-.52-.02-.88,0-.35-.02-.71-.04-1.09l1.45-.61h.09Z" fill="#1d1d1b"></path>
  <path d="m144.19,52.88c.68-.81,1.67-1.22,2.97-1.22.62,0,1.15.09,1.59.29s.82.45,1.12.77c.3.32.53.69.67,1.13.14.43.22.89.22,1.38,0,.12,0,.23-.01.34,0,.11-.02.22-.03.34-.63,0-1.25-.02-1.86-.03-.62,0-1.24-.01-1.86-.01-.38,0-.76,0-1.14.01-.38,0-.76.02-1.14.03-.01.06-.02.15-.02.26v.23c0,.45.07.88.2,1.27.13.39.33.73.59,1.02.26.29.57.51.94.68.37.17.8.25,1.29.25.23,0,.47-.03.71-.1.24-.06.48-.15.72-.26.23-.11.45-.24.65-.39.2-.15.38-.31.53-.49l.09.05-.1.85c-.35.28-.78.52-1.3.72-.52.2-1.05.3-1.61.3-.63,0-1.2-.1-1.72-.29-.52-.19-.96-.47-1.34-.84-.38-.37-.67-.8-.87-1.3-.2-.5-.31-1.04-.31-1.62,0-1.43.34-2.55,1.02-3.36Zm1.91-.36c-.3.2-.54.44-.74.74-.19.3-.34.62-.44.98-.1.35-.16.69-.18,1,.36.01.74.02,1.13.03.39.01.77.02,1.15.02s.78,0,1.17-.02c.4,0,.78-.02,1.16-.03,0-.31-.03-.64-.08-.99-.05-.35-.16-.67-.32-.97-.16-.3-.38-.55-.66-.75-.28-.2-.65-.3-1.1-.3-.43,0-.8.1-1.09.3Z" fill="#1d1d1b"></path>
  <path d="m158.22,56c-.54-1.37-1.13-2.76-1.76-4.16.15.02.3.04.43.06.14.02.28.03.44.03.13,0,.25,0,.38-.03.13-.02.25-.04.38-.06.36,1.15.75,2.28,1.18,3.39.42,1.11.89,2.24,1.42,3.4.23-.47.46-.99.69-1.54.23-.55.45-1.13.68-1.72.23-.59.45-1.19.66-1.78.22-.6.43-1.18.64-1.75.21.06.39.09.54.09s.33-.03.54-.09c-.63,1.4-1.24,2.79-1.84,4.16-.6,1.37-1.15,2.74-1.65,4.11-.17-.03-.35-.04-.54-.04s-.37.02-.56.04c-.53-1.37-1.07-2.74-1.61-4.11Z" fill="#1d1d1b"></path>
  <path d="m166.21,52.88c.68-.81,1.67-1.22,2.97-1.22.62,0,1.15.09,1.59.29.45.19.82.45,1.12.77.3.32.52.69.67,1.13.15.43.22.89.22,1.38,0,.12,0,.23-.01.34,0,.11-.02.22-.03.34-.62,0-1.25-.02-1.86-.03-.61,0-1.24-.01-1.86-.01-.38,0-.76,0-1.14.01-.38,0-.76.02-1.14.03-.02.06-.02.15-.02.26v.23c0,.45.07.88.2,1.27.13.39.33.73.58,1.02.26.29.57.51.94.68.37.17.8.25,1.29.25.23,0,.47-.03.72-.1.24-.06.48-.15.71-.26.23-.11.45-.24.66-.39.2-.15.38-.31.53-.49l.09.05-.1.85c-.35.28-.78.52-1.3.72-.52.2-1.05.3-1.61.3-.63,0-1.2-.1-1.72-.29-.52-.19-.96-.47-1.34-.84-.38-.37-.67-.8-.87-1.3-.2-.5-.31-1.04-.31-1.62,0-1.43.34-2.55,1.02-3.36Zm1.91-.36c-.3.2-.54.44-.73.74-.19.3-.34.62-.44.98-.1.35-.16.69-.18,1,.36.01.74.02,1.13.03.39.01.77.02,1.15.02s.78,0,1.17-.02c.4,0,.78-.02,1.16-.03,0-.31-.03-.64-.08-.99-.05-.35-.16-.67-.32-.97-.16-.3-.38-.55-.66-.75-.28-.2-.65-.3-1.1-.3s-.8.1-1.09.3Z" fill="#1d1d1b"></path>
  <path d="m178.25,53.08c-.17-.06-.34-.09-.51-.09-.28,0-.53.06-.75.19-.22.13-.41.3-.56.51-.15.22-.27.47-.35.77-.08.3-.12.61-.12.95v1.91c0,.78,0,1.37,0,1.78,0,.41.02.75.06,1-.23-.03-.46-.04-.69-.04-.25,0-.5.02-.73.04.03-.39.05-.93.06-1.61,0-.68,0-1.51,0-2.5v-.56c0-.45,0-.98,0-1.57,0-.59-.02-1.27-.06-2.04.13.02.25.04.36.06.11.02.24.03.36.03.1,0,.21,0,.33-.03.11-.02.24-.04.36-.06-.04.42-.07.75-.08.99,0,.24,0,.48,0,.7l.04.02c.68-1.25,1.45-1.88,2.3-1.88.11,0,.2,0,.27.02.07.01.17.04.29.09-.06.14-.09.35-.1.64-.01.29-.02.54-.02.78l-.12.09c-.06-.07-.17-.13-.34-.19Z" fill="#1d1d1b"></path>
  <path d="m187.71,57.6c-.2.56-.48,1.04-.84,1.44-.35.4-.77.71-1.25.92-.48.21-1,.32-1.56.32s-1.06-.12-1.51-.36c-.45-.24-.79-.52-1.02-.86-.42.34-.81.67-1.17,1.01h-.31c.02-.28.04-.61.06-1.01.02-.39.03-.81.04-1.26,0-.45.02-.9.02-1.36,0-.47,0-.89,0-1.29v-3.15c0-.39,0-.82,0-1.29,0-.46-.01-.92-.02-1.37-.01-.45-.02-.88-.04-1.3-.02-.41-.04-.76-.06-1.05.32.06.59.09.78.09.13,0,.26,0,.4-.02.14-.02.29-.04.45-.06-.04.23-.07.6-.09,1.11-.03.5-.04,1.07-.05,1.69-.01.62-.02,1.26-.04,1.91-.01.65-.03,1.25-.04,1.78h.03c.4-.63.83-1.09,1.31-1.38.48-.29,1.03-.44,1.66-.44s1.13.11,1.57.34c.44.23.81.53,1.1.9.29.37.51.81.65,1.3.14.49.22,1.01.22,1.56,0,.67-.1,1.29-.31,1.85Zm-1.42-3.33c-.14-.41-.31-.76-.52-1.04-.22-.28-.47-.49-.75-.64-.28-.14-.58-.22-.88-.22-.36,0-.71.07-1.04.2-.33.13-.62.36-.87.67-.25.31-.44.71-.58,1.2-.15.5-.22,1.1-.22,1.82,0,2.34.85,3.51,2.55,3.51.36,0,.69-.1.99-.29.3-.19.57-.47.8-.83.23-.36.4-.79.53-1.29.13-.5.19-1.06.19-1.68,0-.53-.07-1.01-.2-1.42Z" fill="#1d1d1b"></path>
  <path d="m190.52,48.18c.17-.17.38-.26.62-.26s.45.09.63.26c.17.17.26.38.26.62s-.09.45-.26.62c-.17.17-.38.26-.63.26s-.45-.09-.62-.26c-.17-.17-.26-.38-.26-.62s.09-.45.26-.62Zm-.04,5.26c-.02-.57-.05-1.11-.11-1.61.32.06.58.09.77.09s.45-.03.77-.09c-.05.5-.09,1.04-.11,1.61-.02.57-.02,1.12-.02,1.65v1.81c0,.52,0,1.07.02,1.64.02.57.05,1.09.11,1.56-.26-.03-.52-.04-.77-.04s-.51.02-.77.04c.05-.46.09-.98.11-1.56.02-.57.02-1.12.02-1.64v-1.81c0-.52,0-1.07-.02-1.65Z" fill="#1d1d1b"></path>
  <path d="m200.07,53.22c-.34-.45-.8-.67-1.39-.67-.82,0-1.41.25-1.79.75-.38.5-.57,1.2-.57,2.11v1.48c0,.52,0,1.07.03,1.65.02.57.05,1.09.11,1.56-.27-.03-.53-.04-.78-.04s-.52.02-.78.04c.06-.47.1-.98.11-1.56.02-.58.03-1.13.03-1.65v-1.81c0-.52,0-1.07-.03-1.65-.02-.57-.06-1.11-.11-1.61.32.06.58.09.78.09.09,0,.19,0,.3-.03.11-.02.24-.04.39-.06-.03.47-.04.93-.04,1.4h.04c.32-.5.71-.89,1.17-1.16.45-.27.99-.41,1.62-.41.32,0,.65.05.98.14.33.09.63.25.9.48.27.23.48.54.65.92.17.39.25.89.25,1.49,0,.5-.01,1.01-.03,1.54-.02.53-.03,1.09-.03,1.68v1.13c0,.19,0,.37.01.55,0,.18.02.35.03.51-.24-.03-.48-.04-.74-.04s-.49.02-.72.04c.02-.6.05-1.23.09-1.87.03-.64.04-1.3.04-1.97v-1.06c0-.87-.17-1.53-.51-1.98Z" fill="#1d1d1b"></path>
  <path d="m210.45,58.45c-.09.18-.22.39-.37.6-.16.22-.35.42-.59.6-.24.19-.52.34-.84.45-.32.12-.7.17-1.13.17s-.87-.07-1.29-.23c-.42-.15-.8-.4-1.13-.74-.33-.34-.6-.78-.8-1.32-.2-.54-.3-1.19-.3-1.94s.11-1.39.33-1.93c.22-.55.51-1,.86-1.37.35-.37.75-.64,1.2-.82.44-.18.89-.27,1.34-.27,1.29,0,2.18.58,2.67,1.75h.03v-1.71c0-.44,0-.88,0-1.33,0-.44-.01-.87-.02-1.28,0-.41-.01-.79-.02-1.15,0-.36-.01-.68-.02-.96.14.02.27.04.4.06.13.02.26.02.38.02s.25,0,.37-.02c.12-.02.26-.04.41-.06-.03.37-.06.91-.08,1.61-.02.7-.04,1.48-.06,2.32-.02.85-.03,1.72-.04,2.61-.01.9-.02,1.71-.02,2.46,0,.8,0,1.52.02,2.16,0,.64.02,1.29.03,1.96-.23-.02-.46-.04-.68-.04s-.43.01-.67.04l.07-1.65h-.03Zm-4.73-.58c.14.45.33.82.56,1.09.23.27.48.46.77.57.29.11.57.16.85.16.45,0,.84-.11,1.16-.34.32-.22.59-.52.81-.89.22-.37.37-.78.47-1.25.1-.47.15-.93.15-1.4,0-1.12-.21-1.97-.64-2.56-.43-.59-1.06-.88-1.9-.88-.42,0-.78.1-1.09.29-.31.19-.56.46-.76.8-.2.34-.35.74-.45,1.2-.1.46-.15.95-.15,1.47,0,.7.07,1.27.22,1.73Z" fill="#1d1d1b"></path>
  <path d="m214.54,52.88c.68-.81,1.67-1.22,2.97-1.22.62,0,1.15.09,1.59.29s.82.45,1.12.77c.3.32.53.69.67,1.13.15.43.22.89.22,1.38,0,.12,0,.23-.01.34,0,.11-.02.22-.03.34-.63,0-1.25-.02-1.86-.03-.61,0-1.23-.01-1.86-.01-.38,0-.77,0-1.14.01-.38,0-.76.02-1.14.03-.02.06-.02.15-.02.26v.23c0,.45.07.88.2,1.27.13.39.33.73.59,1.02.26.29.57.51.94.68.37.17.8.25,1.29.25.23,0,.47-.03.72-.1.24-.06.48-.15.71-.26.23-.11.45-.24.65-.39.2-.15.38-.31.53-.49l.09.05-.11.85c-.35.28-.78.52-1.3.72-.52.2-1.05.3-1.61.3-.63,0-1.2-.1-1.72-.29-.52-.19-.97-.47-1.34-.84-.38-.37-.67-.8-.87-1.3-.2-.5-.3-1.04-.3-1.62,0-1.43.34-2.55,1.02-3.36Zm1.91-.36c-.3.2-.54.44-.74.74-.2.3-.34.62-.44.98-.1.35-.16.69-.18,1,.36.01.74.02,1.13.03.39.01.77.02,1.15.02s.78,0,1.17-.02c.4,0,.78-.02,1.15-.03,0-.31-.03-.64-.08-.99-.05-.35-.16-.67-.32-.97-.16-.3-.38-.55-.66-.75-.28-.2-.65-.3-1.1-.3s-.8.1-1.09.3Z" fill="#1d1d1b"></path>
  <path d="m228.11,53.22c-.34-.45-.8-.67-1.39-.67-.81,0-1.41.25-1.79.75-.38.5-.57,1.2-.57,2.11v1.48c0,.52,0,1.07.02,1.65.02.57.06,1.09.11,1.56-.27-.03-.53-.04-.78-.04s-.52.02-.78.04c.06-.47.1-.98.11-1.56.02-.58.03-1.13.03-1.65v-1.81c0-.52,0-1.07-.03-1.65-.02-.57-.06-1.11-.11-1.61.32.06.58.09.78.09.09,0,.19,0,.3-.03s.24-.04.39-.06c-.03.47-.04.93-.04,1.4h.04c.32-.5.71-.89,1.17-1.16.45-.27.99-.41,1.62-.41.33,0,.65.05.99.14.33.09.63.25.89.48.27.23.49.54.65.92.17.39.25.89.25,1.49,0,.5,0,1.01-.03,1.54-.02.53-.03,1.09-.03,1.68v1.13c0,.19,0,.37.01.55,0,.18.02.35.03.51-.23-.03-.48-.04-.74-.04s-.49.02-.72.04c.03-.6.05-1.23.08-1.87.03-.64.05-1.3.05-1.97v-1.06c0-.87-.17-1.53-.51-1.98Z" fill="#1d1d1b"></path>
  <path d="m59.72,13.67c3.04,7.21,7.7,18.51,9.35,21.84-.56-.09-1.09-.16-1.65-.16s-1.09.06-1.65.16c-.59-2.14-2.08-5.56-3.2-8.32-1.34-.03-2.7-.06-4.07-.06-1.27,0-2.52.03-3.79.06-1.3,3.2-2.48,6.37-3.01,8.32-.4-.09-.78-.16-1.15-.16s-.75.06-1.15.16c3.32-7.27,6.55-14.51,9.72-21.84h.59Zm-1.03,4.19l-3.39,7.89c1.09,0,2.27.06,3.35.06,1.15,0,2.33-.03,3.48-.06l-3.45-7.89Z" fill="#1d1d1b"></path>
  <path d="m88.72,17.86c-1.27-1.52-3.7-3.04-6.83-3.04-5.16,0-9.1,3.07-9.1,9.97,0,6.09,3.42,9.82,9.26,9.82,1.77,0,3.91-.34,4.97-.99.03-1.24.06-2.48.06-3.76,0-1.46-.09-2.95-.16-4.26.4.09.99.16,1.49.16.47,0,.93-.03,1.34-.16-.06.93-.12,2.95-.12,6.31,0,.81.03,1.68.03,2.52-1.77.62-5.5,1.49-7.92,1.49-7.39,0-11.99-3.85-11.99-11.12s4.78-11.12,12.14-11.12c4.19,0,6.46,1.03,7.92,1.8-.31.56-.62,1.62-.71,2.39h-.37Z" fill="#1d1d1b"></path>
  <path d="m102.57,13.67c3.04,7.21,7.7,18.51,9.35,21.84-.56-.09-1.09-.16-1.65-.16s-1.09.06-1.65.16c-.59-2.14-2.08-5.56-3.2-8.32-1.34-.03-2.7-.06-4.07-.06-1.27,0-2.52.03-3.79.06-1.3,3.2-2.48,6.37-3.01,8.32-.4-.09-.78-.16-1.15-.16s-.75.06-1.15.16c3.32-7.27,6.55-14.51,9.72-21.84h.59Zm-1.02,4.19l-3.39,7.89c1.09,0,2.27.06,3.35.06,1.15,0,2.33-.03,3.48-.06l-3.45-7.89Z" fill="#1d1d1b"></path>
  <path d="m115.18,22.12c0-2.67-.12-5.37-.25-8.04.99.09,2.02.16,3.01.16s2.98-.16,3.85-.16c1.86,0,6.8.06,6.8,5.25,0,5.47-5.37,6.52-8.36,6.52-.93,0-1.71-.03-2.52-.09v1.71c0,2.67.12,5.37.25,8.04-.53-.09-1.03-.16-1.52-.16s-.99.06-1.52.16c.12-2.67.25-5.37.25-8.04v-5.34Zm2.55,2.33c.65.15,1.52.25,2.21.25,2.55,0,5.81-.96,5.81-5.19,0-3.54-2.02-4.29-5.22-4.29h-2.8v9.23Z" fill="#1d1d1b"></path>
  <path d="m132.14,22.12c0-2.67-.12-5.37-.25-8.04.53.09,1.02.16,1.52.16s.99-.06,1.52-.16c-.12,2.67-.25,5.37-.25,8.04,0,5.22.06,8.88.09,11.93,2.92,0,5.47,0,8.57-.4-.09.31-.16.62-.16.93s.06.62.16.93c-1.9-.09-3.82-.16-5.72-.16s-3.82.06-5.75.16c.12-2.67.25-5.37.25-8.04v-5.34Z" fill="#1d1d1b"></path>
  <path d="m147.36,22.09c0-2.67-.12-5.37-.25-8.01,1.86.09,3.7.16,5.56.16s3.7-.06,5.53-.16c-.06.31-.09.62-.09.93s.03.62.09.93c-2.61-.19-4.13-.4-8.17-.4-.03,1.34-.13,2.42-.13,3.94,0,1.62.03,3.32.03,4.1,3.66,0,5.72-.16,7.55-.31-.06.31-.09.65-.09.96s.03.62.09.93c-2.14-.22-6.06-.28-7.55-.28-.03.75-.03,1.52-.03,4.5,0,2.36.03,3.88.06,4.66,2.77,0,6.43-.03,8.39-.4-.06.28-.09.68-.09.96s.03.62.09.9c-1.83-.09-3.7-.16-5.59-.16s-3.76.06-5.65.16c.12-2.7.25-5.41.25-8.08v-5.34Z" fill="#1d1d1b"></path>
  <path d="m161.89,31.37c.68,1.46,2.24,3.23,4.91,3.23s4.44-2.02,4.44-4.5c0-5.72-9.79-3.26-9.79-10.56,0-3.45,2.61-5.87,6.74-5.87,1.96,0,3.36.47,4.6,1.46-.37.71-.59,1.43-.84,2.61h-.37c-.44-1.15-1.37-2.92-3.7-2.92s-4.01,1.58-4.01,3.85c0,5.81,9.78,3.39,9.78,10.25,0,3.79-2.83,6.99-7.61,6.99-2.58,0-4.04-.9-5.13-1.77.37-.96.47-1.58.59-2.77h.37Z" fill="#1d1d1b"></path>
  <path d="m177.79,22.12c0-2.67-.12-5.37-.25-8.04.53.09,1.03.16,1.52.16s.99-.06,1.52-.16c-.13,2.67-.25,5.37-.25,8.04v5.34c0,2.67.12,5.37.25,8.04-.53-.09-1.03-.16-1.52-.16s-.99.06-1.52.16c.12-2.67.25-5.37.25-8.04v-5.34Z" fill="#1d1d1b"></path>
  <path d="m195.99,13.67c6.86,0,11.65,4.07,11.65,11.12s-4.78,11.12-11.65,11.12-11.62-4.07-11.62-11.12,4.78-11.12,11.62-11.12Zm0,1.15c-4.85,0-8.57,3.07-8.57,9.97s3.73,9.97,8.57,9.97,8.6-3.07,8.6-9.97-3.73-9.97-8.6-9.97Z" fill="#1d1d1b"></path>
  <path d="m229.16,35.91c-4.72-5.56-10.37-11.52-15.69-17.18-.03,1.15-.09,3.01-.09,6.31,0,2.67.12,9.23.28,10.47-.34-.09-.71-.16-1.09-.16s-.75.06-1.15.16c.25-1.46.65-9.41.65-13.51s0-6.93-.09-8.33h.5c5.06,5.5,11.93,12.98,15.72,16.8,0-5.56,0-11.62-.25-16.4.34.09.71.16,1.06.16s.65-.06.99-.16c-.19,1.83-.5,7.98-.5,10.41,0,3.17.06,10.03.09,11.43h-.44Z" fill="#1d1d1b"></path>
</svg>
